<?xml version="1.0" encoding="UTF-8"?>
<svg id="Layer_1" data-name="Layer 1" xmlns="http://www.w3.org/2000/svg" viewBox="0 0 61.78 61.78">
  <defs>
    <style>
      .cls-1 {
        fill: #fff;
      }
    </style>
  </defs>
  <path class="cls-1" d="M56.26,10.09h-5.89V5.02c0-2.77-2.25-5.02-5.02-5.02h-3.49c-2.77,0-5.02,2.25-5.02,5.02v5.07h-11.77V5.02c0-2.77-2.25-5.02-5.02-5.02h-3.49c-2.77,0-5.02,2.25-5.02,5.02v5.07H5.74c-2.08,0-3.77,1.69-3.77,3.77V58.01c0,2.08,1.69,3.77,3.77,3.77H56.26c2.08,0,3.77-1.69,3.77-3.77V13.86c0-2.08-1.69-3.77-3.77-3.77Zm-40.28,.11V5.78c0-1.25,1.01-2.27,2.27-2.27h.08c1.25,0,2.27,1.01,2.27,2.27v7.96c0,1.25-1.01,2.27-2.27,2.27h-.08c-1.25,0-2.27-1.01-2.27-2.27v-3.54Zm.77,48.26H6.04v-10.71h10.71v10.71Zm0-13.07H6.04v-10.71h10.71v10.71Zm0-13.07H6.04v-10.71h10.71v10.71Zm12.99,26.14h-10.71v-10.71h10.71v10.71Zm0-13.07h-10.71v-10.71h10.71v10.71Zm0-13.07h-10.71v-10.71h10.71v10.71Zm12.99,26.14h-10.71v-10.71h10.71v10.71Zm0-13.07h-10.71v-10.71h10.71v10.71Zm0-13.07h-10.71v-10.71h10.71v10.71Zm.9-16.31h-.08c-1.25,0-2.27-1.01-2.27-2.27V5.78c0-1.25,1.01-2.27,2.27-2.27h.08c1.25,0,2.27,1.01,2.27,2.27v7.96c0,1.25-1.01,2.27-2.27,2.27Zm12.09,42.45h-10.71v-10.71h10.71v10.71Zm0-13.07h-10.71v-10.71h10.71v10.71Zm0-13.07h-10.71v-10.71h10.71v10.71Z"/>
</svg>