<?xml version="1.0" encoding="UTF-8"?>
<svg id="Layer_1" data-name="Layer 1" xmlns="http://www.w3.org/2000/svg" viewBox="0 0 61.78 61.78">
  <defs>
    <style>
      .cls-1 {
        fill: #f23a3a  /* Change the fill color here */
      }
    </style>
  </defs>
  <path class="cls-1" d="M7.49,18.18H54.24c-.26,3.27-.52,6.46-.78,9.66-.45,5.4-.89,10.81-1.36,16.21-.38,4.44-.69,8.89-1.21,13.31-.3,2.57-2.54,4.39-5.12,4.4-9.93,.03-19.86,.04-29.79,0-2.95-.01-5.08-2.27-5.34-5.46-.75-9.21-1.48-18.41-2.24-27.62-.28-3.47-.6-6.95-.91-10.49ZM23.58,52.02c-.48-8.02-.97-16.04-1.46-24.06-.09-1.52-.19-3.05-.34-4.56-.11-1.08-.77-1.67-1.86-1.65-1.09,.02-1.74,.88-1.66,2.21,.16,2.97,.36,5.94,.54,8.9,.41,6.62,.8,13.23,1.22,19.85,.08,1.24,1.12,2.06,2.2,1.79,1-.25,1.45-1.04,1.36-2.47Zm19.86-26.64s-.02,0-.03,0c.02-.44,.05-.88,.07-1.32,.06-1.37-.49-2.19-1.56-2.31-1.06-.12-1.87,.68-2.03,2.05-.07,.56-.06,1.12-.1,1.68-.1,1.8-.2,3.61-.31,5.41-.45,7.09-.92,14.19-1.35,21.28-.09,1.46,.63,2.36,1.78,2.36,1.1,0,1.75-.81,1.84-2.22,.17-2.97,.36-5.93,.54-8.9,.38-6.01,.77-12.02,1.15-18.03Zm-10.76,12.87c0-4.58,0-9.16,0-13.73,0-1.89-.54-2.74-1.75-2.78-1.25-.04-1.86,.87-1.86,2.78,0,9.08,0,18.15,0,27.23,0,.4,0,.81,.06,1.2,.13,.97,.74,1.54,1.69,1.56,1.01,.03,1.66-.54,1.81-1.56,.06-.43,.06-.88,.06-1.32,0-4.46,0-8.92,0-13.37Z"/>
  <path class="cls-1" d="M43.62,7.26c3.63,0,7.16-.01,10.69,0,1.67,0,3.03,.99,3.51,2.44,.48,1.46,.05,3.14-1.23,3.98-.66,.44-1.55,.77-2.33,.77-15.59,.04-31.18,.04-46.77,.03-2.17,0-3.71-1.52-3.72-3.58-.01-2.1,1.55-3.63,3.79-3.64,3.49-.02,6.98,0,10.56,0,.06-.86,.1-1.65,.18-2.43C18.57,2.21,20.7,.09,23.34,.06c5.02-.07,10.04-.07,15.07,0,2.64,.04,4.77,2.15,5.04,4.77,.08,.76,.1,1.52,.17,2.44Zm-21.76-.1h18.03c0-.66,.04-1.22,0-1.77-.09-1.08-.71-1.73-1.79-1.74-4.82-.03-9.64-.03-14.45,0-1.07,0-1.69,.66-1.78,1.74-.04,.56,0,1.12,0,1.77Z"/>
</svg>