<?xml version="1.0" encoding="UTF-8"?>
<svg id="Layer_1" data-name="Layer 1" xmlns="http://www.w3.org/2000/svg" viewBox="0 0 61.78 61.78">
  <defs>
    <style>
      .cls-1 {
        fill: #fff;
      }
    </style>
  </defs>
  <path class="cls-1" d="M22.92,31.01c-5.36-5.22-9.96-9.56-14.4-14.06-3.37-3.42-3.64-7.14-.69-9.55,3.33-2.71,6.43-1.8,9.22,1.13,4.36,4.57,8.78,9.1,14.07,14.57,4.43-4.75,8.41-9.16,12.54-13.42,4.24-4.36,7.81-4.96,10.63-2.02,2.82,2.94,2.17,6.28-2.33,10.66-4.15,4.04-8.44,7.93-13.32,12.5,5.33,5.08,9.96,9.37,14.44,13.8,3.41,3.37,3.83,7.1,1.11,9.55-3.51,3.16-6.69,1.89-9.59-1.1-4.38-4.52-8.76-9.04-13.9-14.35-4.72,5.04-8.83,9.58-13.12,13.95-3.85,3.93-7.1,4.33-9.95,1.57-2.74-2.66-2.31-6.27,1.4-9.93,4.37-4.31,8.86-8.5,13.88-13.3Z"/>
</svg>