<?xml version="1.0" encoding="UTF-8"?>
<svg id="Layer_1" data-name="Layer 1" xmlns="http://www.w3.org/2000/svg" viewBox="0 0 61.41 61.48">
  <defs>
    <style>
      .cls-1 {
        fill: #fff;
      }
    </style>
  </defs>
  <path class="cls-1" d="M29.78,34.36c-2.9,0-5.8,.03-8.7-.01-2.32-.03-3.78-2.04-2.99-4.07,.51-1.31,1.56-1.95,2.93-1.95,5.88-.02,11.76-.03,17.64,0,1.8,0,3.14,1.33,3.16,2.98,.02,1.68-1.36,3.02-3.22,3.04-2.94,.03-5.88,0-8.82,0Z"/>
  <path class="cls-1" d="M29.72,22.38c-2.82,0-5.64,0-8.47,0-1.98,0-3.37-1.24-3.39-2.98-.02-1.73,1.35-3,3.34-3,5.76-.02,11.52-.02,17.28,0,1.99,0,3.36,1.29,3.33,3.01-.03,1.74-1.42,2.96-3.4,2.96-2.9,0-5.8,0-8.7,0Z"/>
  <path class="cls-1" d="M29.83,40.3c2.98,0,5.96-.02,8.94,0,1.48,.01,2.53,.87,2.92,2.26,.33,1.19-.1,2.52-1.2,3.16-.58,.33-1.32,.52-1.99,.53-5.76,.04-11.52,.03-17.28,.02-2,0-3.37-1.27-3.35-3,.02-1.74,1.41-2.97,3.39-2.98,2.86,0,5.72,0,8.58,0Z"/>
  <path class="cls-1" d="M17.43,8.08L9.75,.36c-.47-.48-1.25-.48-1.72,0L.36,8.08c-.76,.77-.22,2.07,.86,2.07H5.95v.18c0,4.19,0,8.39,0,12.58,0,.51,.01,1.02,.09,1.52,.21,1.37,1.28,2.31,2.65,2.38,1.96,.1,3.21-1.15,3.22-3.32,.02-4.43,0-8.86,0-13.29v-.05h4.65c1.08,0,1.62-1.3,.86-2.07Z"/>
  <path class="cls-1" d="M43.98,53.4l7.68,7.72c.47,.48,1.25,.48,1.72,0l7.68-7.72c.76-.77,.22-2.07-.86-2.07h-4.73v-.18c0-4.19,0-8.39,0-12.58,0-.51-.01-1.02-.09-1.52-.21-1.37-1.28-2.31-2.65-2.38-1.96-.1-3.21,1.15-3.22,3.32-.02,4.43,0,8.86,0,13.29v.05h-4.65c-1.08,0-1.62,1.3-.86,2.07Z"/>
</svg>