<?xml version="1.0" encoding="UTF-8"?>
<svg id="Layer_1" data-name="Layer 1" xmlns="http://www.w3.org/2000/svg" viewBox="0 0 61.78 61.78">
  <defs>
    <style>
      .cls-1 {
        fill: #fff;
      }
    </style>
  </defs>
  <path class="cls-1" d="M10.39,61.78c-2.01-.12-3.9-.03-5.71-.39-2.69-.55-4.52-3.02-4.53-5.78-.01-16.43-.02-32.86,0-49.28C.16,2.93,2.86,.24,6.26,.22c4.05-.03,8.1,0,12.33,0,0,.52,0,.97,0,1.42,0,4.82,0,9.64,0,14.47,0,2.95,1.64,4.6,4.59,4.6,5.16,0,10.33,0,15.49,0,2.85,0,4.51-1.68,4.52-4.54,0-5.16,0-10.33,.01-15.49,0-.08,0-.42,0-.42,2.45,.05,4.9-.51,6.99,1.87,3.23,3.68,6.87,7.01,10.36,10.45,.75,.74,1.1,1.52,1.1,2.59-.03,13.36-.01,26.71-.02,40.07,0,3.82-2.61,6.43-6.42,6.44-1.23,0-2.46,0-3.82,0v-1.48c0-5.5,0-11.01,0-16.51,0-3.99-2.58-6.59-6.54-6.59-9.3,0-18.61,0-27.91,0-3.96,0-6.53,2.61-6.54,6.6,0,5.93,0,11.86,0,18.09Z"/>
  <path class="cls-1" d="M14.49,61.58c0-6.19-.02-12.29,.01-18.38,0-1.33,.89-2.01,2.43-2.01,6.02,0,12.03,0,18.05,0,3.33,0,6.66,0,9.98,0,1.41,0,2.29,.73,2.29,2.02,.03,6.09,.01,12.19,.01,18.37H14.49Z"/>
  <path class="cls-1" d="M22.78,.27h16.23V16.49H22.78V.27Z"/>
</svg>