<?xml version="1.0" encoding="UTF-8"?>
<svg id="Layer_1" data-name="Layer 1" xmlns="http://www.w3.org/2000/svg" viewBox="0 0 61.78 61.78">
  <defs>
    <style>
      .cls-1 {
        fill: #fff;
      }
    </style>
  </defs>
  <path class="cls-1" d="M23.48,39.6c7.46-8.29,14.93-16.58,22.39-24.87,1.45-1.61,2.83-3.28,4.34-4.84,3.54-3.67,6.66-4.1,9.46-1.2,3.09,3.2,2.15,6.28-.52,9.24-4.8,5.32-9.56,10.66-14.36,15.98-5.35,5.94-10.68,11.9-16.09,17.78-3.93,4.27-6.92,4.37-10.97,.28-5.04-5.09-9.94-10.32-14.93-15.45C-.01,33.66-.95,30.58,1.94,27.3c2.39-2.71,6.23-2.18,9.61,1.05,3.83,3.66,7.71,7.28,11.93,11.25Z"/>
</svg>