<?xml version="1.0" encoding="utf-8"?>
<!-- Generator: Adobe Illustrator 26.5.0, SVG Export Plug-In . SVG Version: 6.00 Build 0)  -->
<svg version="1.1" id="Background_Complete" xmlns="http://www.w3.org/2000/svg" xmlns:xlink="http://www.w3.org/1999/xlink"
	 x="0px" y="0px" viewBox="0 0 410.7 299.9" style="enable-background:new 0 0 410.7 299.9;" xml:space="preserve">
<style type="text/css">
	.st0{opacity:0.35;}
	.st1{fill:#FFFFFF;}
	.st2{opacity:0.43;fill:#FFFFFF;enable-background:new    ;}
	.st3{fill:#4C6AA6;}
	.st4{opacity:0.12;fill:#FFFFFF;enable-background:new    ;}
	.st5{opacity:0.81;}
	.st6{fill:#D5F4FB;}
	.st7{opacity:0.66;fill:#D5F4FB;enable-background:new    ;}
	.st8{opacity:0.76;fill:#FFFFFF;enable-background:new    ;}
	.st9{opacity:0.58;fill:#C5D7DB;enable-background:new    ;}
	.st10{fill:none;}
	.st11{opacity:0.33;fill:#C5D7DB;}
	.st12{fill:#C5D7DB;}
	.st13{fill:#A8C9D7;}
	.st14{opacity:0.43;fill:#C5D7DB;enable-background:new    ;}
	.st15{fill:none;stroke:#B1DEFE;stroke-miterlimit:10;}
	.st16{opacity:0.14;fill:#C5D7DB;enable-background:new    ;}
</style>
<g>
	<g class="st0">
		<path class="st1" d="M162.7,106.3l0.4-10.8l-6.7-2.2c-0.3-3.7-0.9-7.4-1.8-10.9l5.6-4.2l-3.8-10.2l-7,0.6
			c-1.7-3.3-3.6-6.4-5.8-9.4l3.6-6l-7.4-7.9l-6.2,3.2c-2.8-2.4-5.8-4.6-8.9-6.5l1-6.9l-9.9-4.5l-4.5,5.3c-3.5-1.1-7-2-10.7-2.5
			l-1.7-6.8l-10.9-0.4l-2.1,6.7c-3.7,0.3-7.4,0.9-10.9,1.8l-4.2-5.6l-10.2,3.8l0.6,7c-3.3,1.7-6.4,3.6-9.4,5.8l-6-3.6l-8,7.4
			l3.2,6.3c-2.4,2.8-4.6,5.8-6.4,8.9l-6.9-1L23,73.6l5.4,4.5c-1.1,3.5-2,7.1-2.5,10.7L19,90.6l-0.4,10.8l6.7,2.2
			c0.3,3.7,0.9,7.4,1.8,10.9l-5.6,4.2l3.8,10.2l7-0.6c1.7,3.3,3.6,6.4,5.8,9.4l-3.6,6l7.4,7.9l6.2-3.2c2.8,2.4,5.8,4.6,8.9,6.5
			l-1,6.9l9.9,4.5l4.6-5.3c3.5,1.1,7,2,10.7,2.5l1.7,6.8l10.9,0.4L96,164c3.7-0.3,7.4-0.9,10.9-1.8l4.2,5.6l10.2-3.8l-0.5-7
			c3.3-1.7,6.4-3.6,9.4-5.8l6,3.6l8-7.4l-3.2-6.3c2.4-2.8,4.6-5.8,6.4-8.9l6.9,1l4.5-9.9l-5.4-4.5c1.1-3.5,2-7,2.5-10.7L162.7,106.3
			L162.7,106.3L162.7,106.3z M89.4,141.5C65.6,140.7,47,120.8,47.9,97c0.8-23.8,20.7-42.4,44.5-41.6s42.4,20.7,41.6,44.5
			C133.1,123.7,113.2,142.3,89.4,141.5C89.4,141.5,89.4,141.5,89.4,141.5z"/>
		<path class="st1" d="M341.7,50.7l2.7-2.6l-1.1-2.2c0.8-1,1.6-2,2.2-3.1l2.4,0.4l1.6-3.4l-1.8-1.6c0.4-1.2,0.7-2.5,0.9-3.7l2.4-0.6
			l0.1-3.7l-2.3-0.7c-0.1-1.3-0.3-2.5-0.6-3.8l1.9-1.4l-1.3-3.5l-2.4,0.2c-0.6-1.1-1.2-2.2-2-3.2l1.2-2.1l-2.6-2.7l-2.1,1.1
			c-1-0.8-2-1.6-3.1-2.2l0.3-2.4l-3.4-1.6l-1.6,1.8c-1.2-0.4-2.5-0.7-3.7-0.9l-0.6-2.3l-3.7-0.1l-0.8,2.3c-1.3,0.1-2.5,0.3-3.8,0.6
			l-1.4-1.9l-3.5,1.3l0.2,2.4c-1.1,0.6-2.2,1.2-3.2,2l-2.1-1.2l-2.7,2.6l1.1,2.2c-0.8,1-1.6,2-2.2,3.1l-2.4-0.4l-1.6,3.4l1.8,1.6
			c-0.4,1.2-0.7,2.5-0.9,3.7l-2.4,0.6l-0.1,3.7l2.3,0.7c0.1,1.3,0.3,2.5,0.6,3.8l-1.9,1.4l1.3,3.5l2.4-0.2c0.6,1.1,1.2,2.2,2,3.2
			l-1.2,2.1l2.6,2.7l2.1-1.1c1,0.8,2,1.6,3.1,2.2l-0.4,2.4l3.4,1.6l1.6-1.8c1.2,0.4,2.5,0.7,3.7,0.9l0.6,2.3l3.7,0.1l0.8-2.3
			c1.3-0.1,2.5-0.3,3.8-0.6l1.4,1.9l3.5-1.3l-0.2-2.4c1.1-0.6,2.2-1.2,3.2-2L341.7,50.7L341.7,50.7L341.7,50.7z M322.2,34.9
			c-2-2.2-1.9-5.5,0.3-7.5c2.2-2,5.5-1.9,7.6,0.3c2,2.2,1.9,5.5-0.3,7.6C327.6,37.1,324.2,37,322.2,34.9L322.2,34.9L322.2,34.9z"/>
		<path class="st2" d="M248.5,181.9L240,176v0c-0.8-3.1-2-6.1-3.4-8.9l2.2-8.6l-12.4-13.3l-8.7,1.6c-2.7-1.6-5.6-3-8.6-4h0l-5.3-8.9
			l-18.1-0.6l-5.9,8.5h0c-3.1,0.8-6.1,2-8.9,3.4l-8.6-2.2l-13.3,12.4l1.6,8.7l0,0c-1.6,2.7-3,5.6-4,8.7l-8.9,5.3l-0.6,18.1l8.5,5.9
			c0.8,3.1,2,6.1,3.4,8.9c0.6,1.3,0.6,1.3,0,0l-2.2,8.6l12.4,13.3l8.7-1.6c2.7,1.6,5.6,3,8.7,4l0,0l5.3,8.9l18.1,0.6l5.9-8.5
			c3.1-0.8,6.1-2,9-3.4l0,0l8.5,2.2l13.3-12.4l-1.6-8.7c1.6-2.7,3-5.6,4-8.7l0,0l8.9-5.3L248.5,181.9L248.5,181.9L248.5,181.9z
			 M192,209.4c-11.3-0.4-20.1-9.8-19.7-21.1c0.4-11.3,9.8-20.1,21.1-19.7c11.3,0.4,20.1,9.8,19.7,21.1
			C212.7,201,203.3,209.8,192,209.4z"/>
		<path class="st2" d="M305.2,61.1l-6.1-4.2v0c-0.6-2.2-1.4-4.4-2.5-6.4l1.6-6.2l-8.9-9.5l-6.3,1.1c-1.9-1.2-4-2.1-6.2-2.9h0
			l-3.8-6.4l-13-0.4l-4.2,6.1h0c-2.2,0.6-4.4,1.4-6.4,2.5l-6.2-1.6l-9.5,8.9l1.1,6.2l0,0c-1.2,2-2.1,4-2.9,6.2l-6.4,3.8l-0.4,13
			l6.1,4.2c0.6,2.2,1.4,4.4,2.5,6.4c0.5,0.9,0.5,0.9,0,0l-1.6,6.1l8.9,9.5l6.2-1.1c2,1.2,4,2.1,6.2,2.9l0,0l3.8,6.4l13,0.4l4.2-6.1
			c2.2-0.6,4.4-1.4,6.4-2.5l0,0l6.1,1.6l9.5-8.9l-1.1-6.2c1.2-2,2.1-4,2.9-6.2l0,0l6.4-3.8L305.2,61.1L305.2,61.1L305.2,61.1z
			 M264.7,80.9c-8.1-0.3-14.4-7.1-14.1-15.1c0.3-8.1,7-14.4,15.1-14.1c8.1,0.3,14.4,7,14.1,15.1C279.5,74.8,272.8,81.1,264.7,80.9z"
			/>
	</g>
	<g>
		<path class="st3" d="M234.8,127.3H182c-3.7,0-6.7-3-6.7-6.7v-4.4c0-3.7-3-6.7-6.7-6.7h-24.4c-3.7,0-6.7,3-6.7,6.7v69.6
			c0,3.5,2.8,6.2,6.2,6.2h91c3.5,0,6.2-2.8,6.2-6.2v-52.3C241,130.1,238.2,127.3,234.8,127.3C234.8,127.3,234.8,127.3,234.8,127.3z"
			/>
		<path class="st3" d="M229,127.3h-52.8c-3.7,0-6.7-3-6.7-6.7v-4.4c0-3.7-3-6.7-6.7-6.7h-24.4c-3.7,0-6.7,3-6.7,6.7v69.6
			c0,3.5,2.8,6.2,6.2,6.2h91c3.5,0,6.2-2.8,6.2-6.2v-52.3C235.2,130.1,232.4,127.3,229,127.3L229,127.3L229,127.3z"/>
		<path class="st4" d="M229,127.3h-52.8c-3.7,0-6.7-3-6.7-6.7v-4.4c0-3.7-3-6.7-6.7-6.7h-24.4c-3.7,0-6.7,3-6.7,6.7v69.6
			c0,3.5,2.8,6.2,6.2,6.2h91c3.5,0,6.2-2.8,6.2-6.2v-52.3C235.2,130.1,232.4,127.3,229,127.3L229,127.3L229,127.3z"/>
		<path class="st4" d="M215.6,127.3h-45.5c-3.2,0-5.8-3-5.8-6.7v-4.4c0-3.7-2.6-6.7-5.8-6.7h-21c-3.2,0-5.8,3-5.8,6.7v69.6
			c0,3.5,2.4,6.2,5.4,6.2h78.5c3,0,5.4-2.8,5.4-6.2v-52.3C221,130.1,218.6,127.3,215.6,127.3L215.6,127.3L215.6,127.3z"/>
		<path class="st1" d="M136.6,134.2c-0.3,0-0.6-0.3-0.6-0.6v-15.2c0-2.4,1.9-4.3,4.3-4.3h18c0.3,0,0.6,0.3,0.6,0.6
			c0,0.3-0.3,0.6-0.6,0.6h-18c-1.7,0-3,1.4-3,3v15.2C137.3,133.9,137,134.2,136.6,134.2L136.6,134.2L136.6,134.2z"/>
	</g>
	<g>
		<g class="st5">
			<path class="st6" d="M253.3,238.3h-17c-0.5,0-0.8-0.4-0.8-0.8c0-0.5,0.4-0.8,0.8-0.8h17c0.5,0,0.8,0.4,0.8,0.8
				C254.1,237.9,253.8,238.3,253.3,238.3z"/>
			<path class="st6" d="M253.3,256h-17c-0.5,0-0.8-0.4-0.8-0.8c0-0.5,0.4-0.8,0.8-0.8h17c0.5,0,0.8,0.4,0.8,0.8
				C254.1,255.6,253.8,256,253.3,256z"/>
			<g>
				<g>
					<path class="st6" d="M266.1,273.8H161.4c-1.2,0-2.2-1-2.2-2.2v-54.4c0-1.2,1-2.2,2.2-2.2h104.7c1.2,0,2.2,1,2.2,2.2v54.4
						C268.3,272.8,267.3,273.8,266.1,273.8z M161.4,216.6c-0.3,0-0.6,0.3-0.6,0.6v54.4c0,0.3,0.3,0.6,0.6,0.6h104.7
						c0.3,0,0.6-0.3,0.6-0.6v-54.4c0-0.3-0.3-0.6-0.6-0.6L161.4,216.6L161.4,216.6z"/>
					<path class="st7" d="M266.1,273.8H161.4c-1.2,0-2.2-1-2.2-2.2v-54.4c0-1.2,1-2.2,2.2-2.2h104.7c1.2,0,2.2,1,2.2,2.2v54.4
						C268.3,272.8,267.3,273.8,266.1,273.8z M161.4,216.6c-0.3,0-0.6,0.3-0.6,0.6v54.4c0,0.3,0.3,0.6,0.6,0.6h104.7
						c0.3,0,0.6-0.3,0.6-0.6v-54.4c0-0.3-0.3-0.6-0.6-0.6L161.4,216.6L161.4,216.6z"/>
				</g>
				<path class="st6" d="M253.3,229.8h-80.8c-0.5,0-0.8-0.4-0.8-0.8c0-0.5,0.4-0.8,0.8-0.8h80.8c0.5,0,0.8,0.4,0.8,0.8
					C254.1,229.4,253.8,229.8,253.3,229.8z"/>
				<path class="st6" d="M253.3,246.9h-80.8c-0.5,0-0.8-0.4-0.8-0.8s0.4-0.8,0.8-0.8h80.8c0.5,0,0.8,0.4,0.8,0.8
					S253.8,246.9,253.3,246.9z"/>
				<path class="st6" d="M216.1,238.3h-43.6c-0.5,0-0.8-0.4-0.8-0.8c0-0.5,0.4-0.8,0.8-0.8h43.6c0.5,0,0.8,0.4,0.8,0.8
					C216.9,237.9,216.5,238.3,216.1,238.3z"/>
				<path class="st6" d="M216.1,256h-43.6c-0.5,0-0.8-0.4-0.8-0.8c0-0.5,0.4-0.8,0.8-0.8h43.6c0.5,0,0.8,0.4,0.8,0.8
					C216.9,255.6,216.5,256,216.1,256z"/>
				<path class="st6" d="M201.9,264.1h-29.4c-0.5,0-0.8-0.4-0.8-0.8c0-0.5,0.4-0.8,0.8-0.8h29.4c0.5,0,0.8,0.4,0.8,0.8
					C202.7,263.7,202.3,264.1,201.9,264.1z"/>
			</g>
		</g>
		<g class="st5">
			<path class="st6" d="M91,185.5H72c-0.5,0-0.8-0.4-0.8-0.8c0-0.5,0.4-0.8,0.8-0.8H91c0.5,0,0.8,0.4,0.8,0.8
				C91.9,185.1,91.5,185.5,91,185.5z"/>
			<path class="st6" d="M91,165.6H72c-0.5,0-0.8-0.4-0.8-0.8c0-0.5,0.4-0.8,0.8-0.8H91c0.5,0,0.8,0.4,0.8,0.8
				C91.9,165.3,91.5,165.6,91,165.6z"/>
			<g>
				<g>
					<path class="st6" d="M175.5,209.9H57.4c-1.2,0-2.2-1-2.2-2.2v-61.5c0-1.2,1-2.2,2.2-2.2h118.1c1.2,0,2.2,1,2.2,2.2v61.5
						C177.7,208.9,176.7,209.9,175.5,209.9L175.5,209.9z M57.4,145.6c-0.3,0-0.6,0.3-0.6,0.6v61.5c0,0.3,0.3,0.6,0.6,0.6h118.1
						c0.3,0,0.6-0.3,0.6-0.6v-61.5c0-0.3-0.3-0.6-0.6-0.6L57.4,145.6L57.4,145.6z"/>
					<path class="st7" d="M175.5,209.9H57.4c-1.2,0-2.2-1-2.2-2.2v-61.5c0-1.2,1-2.2,2.2-2.2h118.1c1.2,0,2.2,1,2.2,2.2v61.5
						C177.7,208.9,176.7,209.9,175.5,209.9L175.5,209.9z M57.4,145.6c-0.3,0-0.6,0.3-0.6,0.6v61.5c0,0.3,0.3,0.6,0.6,0.6h118.1
						c0.3,0,0.6-0.3,0.6-0.6v-61.5c0-0.3-0.3-0.6-0.6-0.6L57.4,145.6L57.4,145.6z"/>
				</g>
				<path class="st6" d="M162.8,195.1H72c-0.5,0-0.8-0.4-0.8-0.8c0-0.5,0.4-0.8,0.8-0.8h90.8c0.5,0,0.8,0.4,0.8,0.8
					C163.6,194.7,163.3,195.1,162.8,195.1z"/>
				<path class="st6" d="M162.8,175.8H72c-0.5,0-0.8-0.4-0.8-0.8c0-0.5,0.4-0.8,0.8-0.8h90.8c0.5,0,0.8,0.4,0.8,0.8
					C163.6,175.5,163.3,175.8,162.8,175.8z"/>
				<path class="st6" d="M162.8,185.5h-49c-0.5,0-0.8-0.4-0.8-0.8c0-0.5,0.4-0.8,0.8-0.8h49c0.5,0,0.8,0.4,0.8,0.8
					C163.6,185.1,163.3,185.5,162.8,185.5z"/>
				<path class="st6" d="M162.8,165.6h-49c-0.5,0-0.8-0.4-0.8-0.8c0-0.5,0.4-0.8,0.8-0.8h49c0.5,0,0.8,0.4,0.8,0.8
					C163.6,165.3,163.3,165.6,162.8,165.6z"/>
				<path class="st6" d="M162.8,156.5h-33c-0.5,0-0.8-0.4-0.8-0.8c0-0.5,0.4-0.8,0.8-0.8h33c0.5,0,0.8,0.4,0.8,0.8
					C163.6,156.1,163.3,156.5,162.8,156.5z"/>
			</g>
		</g>
	</g>
</g>
<g>
	<path class="st8" d="M210.5,131c-2.4,0-4.4-2-4.4-4.4c0-35.3,28.7-63.9,63.9-63.9c2.4,0,4.4,2,4.4,4.4c0,2.4-2,4.4-4.4,4.4
		c-30.4,0-55.1,24.7-55.1,55.1C214.9,129.1,212.9,131,210.5,131L210.5,131z"/>
	<path class="st9" d="M265.2,198.1c-39.8,0-72.1-32.3-72.1-72.1s32.3-72.1,72.1-72.1s72.1,32.3,72.1,72.1S305,198.1,265.2,198.1z
		 M265.2,58.3c-37.3,0-67.7,30.4-67.7,67.7s30.4,67.7,67.7,67.7s67.7-30.4,67.7-67.7S302.5,58.3,265.2,58.3z"/>
	<g>
		<g>
			<circle class="st10" cx="265.2" cy="126" r="69.9"/>
			<g>
				<path class="st11" d="M329.4,176.1c0.1-0.1,0.2-0.2,0.3-0.3c10.6-13.8,17-31,17-49.8c0-45-36.5-81.6-81.6-81.6
					S183.7,81,183.7,126s36.5,81.6,81.6,81.6c18.7,0,35.9-6.3,49.6-16.9l9.4-9.4L329.4,176.1L329.4,176.1L329.4,176.1z M265.2,195.9
					c-38.6,0-69.9-31.3-69.9-69.9s31.3-69.9,69.9-69.9s69.9,31.3,69.9,69.9S303.8,195.9,265.2,195.9z"/>
				<path class="st12" d="M265.2,208.7c-45.6,0-82.7-37.1-82.7-82.7s37.1-82.7,82.7-82.7s82.7,37.1,82.7,82.7
					c0,18.4-6,35.9-17.2,50.5l-0.2,0.2c-0.1,0.1-0.2,0.1-0.2,0.2l-14.7,14.7C301,202.8,283.6,208.7,265.2,208.7L265.2,208.7
					L265.2,208.7z M265.2,45.6c-44.4,0-80.4,36.1-80.4,80.4s36.1,80.4,80.4,80.4c17.8,0,34.7-5.7,48.9-16.6l14.6-14.6
					c0.1-0.1,0.2-0.2,0.3-0.3c10.9-14.2,16.7-31.1,16.7-49C345.7,81.7,309.6,45.6,265.2,45.6C265.2,45.6,265.2,45.6,265.2,45.6z
					 M265.2,197c-39.1,0-71-31.8-71-71s31.8-71,71-71s71,31.8,71,71S304.4,197,265.2,197z M265.2,57.2c-37.9,0-68.8,30.9-68.8,68.8
					s30.9,68.8,68.8,68.8S334,163.9,334,126S303.1,57.2,265.2,57.2z"/>
			</g>
			<path class="st13" d="M327.4,188.8l-3.2-3.2c-1.2-1.2-1.2-3.2,0-4.4l-9.4,9.4l-0.2,0.2c-1.2,1.2-1.2,3.2,0,4.4l3.8,3.8
				C319.8,197,323.5,192.8,327.4,188.8L327.4,188.8L327.4,188.8z"/>
			<path class="st13" d="M324.3,181.3c-1.2,1.2-1.2,3.2,0,4.4l3.2,3.2c3.8-3.9,7.8-7.5,10.1-9.1l-3.7-3.7c-1.1-1.1-2.9-1.2-4.1-0.3
				c-0.1,0.1-0.2,0.2-0.3,0.3L324.3,181.3L324.3,181.3L324.3,181.3z"/>
			<path class="st14" d="M324.3,181.3c-1.2,1.2-1.2,3.2,0,4.4l3.2,3.2c3.8-3.9,7.8-7.5,10.1-9.1l-3.7-3.7c-1.1-1.1-2.9-1.2-4.1-0.3
				c-0.1,0.1-0.2,0.2-0.3,0.3L324.3,181.3L324.3,181.3L324.3,181.3z"/>
			<path class="st15" d="M392.8,234.2l-54.3-54.9c-0.2-0.2-0.8,0.1-1.6,0.6c-2.1,1.4-5.9,4.9-9.6,8.6c-3.7,3.8-7.2,7.7-8.4,9.7
				c-0.4,0.7-0.5,1.1-0.4,1.3l54.3,54.9c5.5,5.6,14.5,5.6,20,0S398.3,239.8,392.8,234.2L392.8,234.2z"/>
		</g>
		<path class="st16" d="M389.4,231.1l-51.1-51.7c-0.7-0.7-6.5,4.5-11.5,9.7c-4.3,4.4,61.3,70.4,66.5,65.2l0,0
			C398.5,249.1,398.8,238.3,389.4,231.1L389.4,231.1z"/>
	</g>
</g>
</svg>
